<?xml version="1.0" standalone="no"?><!DOCTYPE svg PUBLIC "-//W3C//DTD SVG 1.1//EN" "http://www.w3.org/Graphics/SVG/1.1/DTD/svg11.dtd"><svg t="1749211780761" class="icon" viewBox="0 0 1024 1024" version="1.1" xmlns="http://www.w3.org/2000/svg" p-id="36932" xmlns:xlink="http://www.w3.org/1999/xlink" width="200" height="200"><path d="M90.125 90.125m120.55090073 0l602.64819855 0q120.55090073 0 120.55090072 120.55090073l0 602.64819855q0 120.55090073-120.55090072 120.55090072l-602.64819855 0q-120.55090073 0-120.55090073-120.55090072l0-602.64819855q0-120.55090073 120.55090073-120.55090073Z" fill="#040000" p-id="36933"></path><path d="M239.16588413 634.94278366c0 44.75478735 36.3566206 81.11140879 81.11140878 81.11140878h281.6043533c39.54579785 0 72.50063022-28.48998339 79.62312607-66.01596982l103.4356495 51.23944858v-56.87366171l-96.52576548-47.83765869-175.19213836-83.9816683 182.52724604-88.65912827v1.06305908l89.1906578-43.58542236v-56.76735581l-103.3293436 50.49530722c-6.69727222-38.05751513-39.86471557-66.97272299-79.72943197-66.97272299h-281.71065921c-44.75478735 0-81.11140879 36.3566206-81.11140878 81.11140879v42.73497509l51.02683675 24.76927661v-0.42522363l42.62866919 21.04857065 72.39432432 35.18725562-164.66785346 82.70599741m391.41835731 30.19087792v9.46122583c0 16.58372168-13.50085034 30.08457202-30.08457203 30.08457203H320.17098701c-16.58372168 0-30.08457202-13.50085034-30.08457204-30.08457203v-12.01256763l169.55792524-82.81230331 172.21557212 85.2573392z m0-226.1126684L459.75064612 483.45686365l-169.66423115-83.98166831v-10.20536718c0-16.58372168 13.50085034-30.08457202 30.08457204-30.08457203h281.60435329c16.58372168 0 30.08457202 13.50085034 30.08457203 30.08457203v10.20536718z" fill="#FDFEFE" p-id="36934"></path></svg>