<?xml version="1.0" standalone="no"?><!DOCTYPE svg PUBLIC "-//W3C//DTD SVG 1.1//EN" "http://www.w3.org/Graphics/SVG/1.1/DTD/svg11.dtd"><svg t="1749202486668" class="icon" viewBox="0 0 1024 1024" version="1.1" xmlns="http://www.w3.org/2000/svg" p-id="6874" xmlns:xlink="http://www.w3.org/1999/xlink" width="200" height="200"><path d="M605.1 856.9h111.7c20.6 0 37.2 16.5 37.2 37s-16.6 37-37.2 37H307.2c-20.6 0-37.2-16.5-37.2-37s16.6-37 37.2-37h93.1v-92.6H121c-41.1 0-74.5-33.2-74.5-74V190.4c0-40.8 33.4-74 74.5-74h782c41.1 0 74.5 33.2 74.5 74v499.8c0 40.8-33.4 74-74.5 74H605.1v92.7z m-37.2 0v-92.6H437.5v92.6h130.4zM121 190.4v499.8h782V190.4H121z m199.3 310.7L452 370.2c14.5-14.5 38.2-14.5 52.7 0s14.5 38 0 52.4L373.1 553.4c-14.5 14.5-38.2 14.5-52.7 0-14.6-14.5-14.6-38-0.1-52.3z m223.5-41.6l52.7-52.4c14.5-14.5 38.2-14.5 52.7 0s14.5 38 0 52.4L596.5 512c-14.5 14.5-38.2 14.5-52.7 0-14.6-14.6-14.6-38 0-52.5z" fill="#927AEC" p-id="6875"></path></svg>