<?xml version="1.0" standalone="no"?><!DOCTYPE svg PUBLIC "-//W3C//DTD SVG 1.1//EN" "http://www.w3.org/Graphics/SVG/1.1/DTD/svg11.dtd"><svg t="1749236213532" class="icon" viewBox="0 0 1024 1024" version="1.1" xmlns="http://www.w3.org/2000/svg" p-id="20796" xmlns:xlink="http://www.w3.org/1999/xlink" width="200" height="200"><path d="M255.008 417.792L158.08 223.936a32 32 0 1 1 28.64-14.304l96.384 192.8C347.008 370.752 426.24 352 512 352c85.76 0 164.992 18.752 228.896 50.432l96.384-192.8a32 32 0 1 1 28.608 14.304l-96.896 193.856C846.976 464.64 896 532.48 896 608v32h32a64 64 0 0 1 64 64v32a64 64 0 0 1-64 64h-32v64a64 64 0 0 1-64 64H192a64 64 0 0 1-64-64v-64H96a64 64 0 0 1-64-64v-32a64 64 0 0 1 64-64h32v-32c0-75.52 49.024-143.36 127.008-190.208zM864 640v-32c0-120.32-155.52-224-352-224S160 487.68 160 608v256a32 32 0 0 0 32 32h640a32 32 0 0 0 32-32v-224z m32 128h32a32 32 0 0 0 32-32v-32a32 32 0 0 0-32-32h-32v96zM128 768v-96H96a32 32 0 0 0-32 32v32a32 32 0 0 0 32 32h32z m224-192a64 64 0 1 0 0 128h320a64 64 0 1 0 0-128H352z m0-32h320a96 96 0 0 1 0 192H352a96 96 0 0 1 0-192z" fill="#000000" p-id="20797"></path><path d="M395.328 219.328A16 16 0 0 1 384 224H304a16 16 0 0 1 0-32h73.376l43.296-43.328a16 16 0 0 1 25.632 4.16l30.72 61.44 35.808-107.328c5.12-15.392 27.264-14.272 30.784 1.6l23.296 104.832 27.36-45.6a16 16 0 0 1 25.056-3.104l27.296 27.328H720a16 16 0 1 1 0 32H640a16 16 0 0 1-11.328-4.672l-17.504-17.536-37.44 62.432a16 16 0 0 1-29.344-4.768l-19.456-87.584-29.76 89.184a16 16 0 0 1-29.472 2.112l-38.08-76.16-32.32 32.32z" fill="#7982F2" p-id="20798"></path></svg>