<?xml version="1.0" standalone="no"?><!DOCTYPE svg PUBLIC "-//W3C//DTD SVG 1.1//EN" "http://www.w3.org/Graphics/SVG/1.1/DTD/svg11.dtd"><svg t="1749236506838" class="icon" viewBox="0 0 1024 1024" version="1.1" xmlns="http://www.w3.org/2000/svg" p-id="26070" xmlns:xlink="http://www.w3.org/1999/xlink" width="200" height="200"><path d="M502.2 317c8.1 0 14.6 6.5 14.6 14.6v360.8c0 8.1-6.5 14.6-14.6 14.6s-14.6-6.5-14.6-14.6V331.6c0-8.1 6.6-14.6 14.6-14.6z" fill="#d4237a" p-id="26071"></path><path d="M499.8 329.1m-36.6 0a36.6 36.6 0 1 0 73.2 0 36.6 36.6 0 1 0-73.2 0Z" fill="#d4237a" p-id="26072"></path><path d="M499.8 719.2m-36.6 0a36.6 36.6 0 1 0 73.2 0 36.6 36.6 0 1 0-73.2 0Z" fill="#d4237a" p-id="26073"></path><path d="M512 1024C229.7 1024 0 794.3 0 512S229.7 0 512 0s512 229.7 512 512-229.7 512-512 512z m0-975.2C256.6 48.8 48.8 256.6 48.8 512S256.6 975.2 512 975.2 975.2 767.4 975.2 512 767.4 48.8 512 48.8z" fill="#d4237a" p-id="26074"></path><path d="M643.7 585.1h-19.5c-35 0-63.4-28.4-63.4-63.4v-19.5c0-35 28.4-63.4 63.4-63.4h19.5c35 0 63.4 28.4 63.4 63.4v19.5c-0.1 35-28.5 63.4-63.4 63.4z m-19.6-117c-18.8 0-34.1 15.3-34.1 34.1v19.5c0 18.8 15.3 34.2 34.1 34.2h19.5c18.8 0 34.1-15.3 34.1-34.2v-19.5c0-18.8-15.3-34.1-34.1-34.1h-19.5zM438.9 573H292.6c-4.2 0-8.1-2.2-10.4-5.8-2.2-3.6-2.4-8.1-0.5-11.9L354.8 409c4.1-8.3 17.7-8.3 21.8 0l73.1 146.3c1.9 3.8 1.7 8.3-0.5 11.9-2.2 3.6-6.1 5.8-10.3 5.8z m-126.6-24.4h106.8l-53.4-106.8-53.4 106.8z" fill="#d4237a" p-id="26075"></path></svg>